<svg xmlns="http://www.w3.org/2000/svg" xmlns:xlink="http://www.w3.org/1999/xlink" version="1.1" width="256" height="256" viewBox="0 0 256 256" xml:space="preserve">

<defs>
</defs>
<g style="stroke: none; stroke-width: 0; stroke-dasharray: none; stroke-linecap: butt; stroke-linejoin: miter; stroke-miterlimit: 10; fill: none; fill-rule: nonzero; opacity: 1;" transform="translate(1.4065934065934016 1.4065934065934016) scale(2.81 2.81)" >
	<path d="M 30.824 89.598 c -3.06 0 -5.934 -1.496 -7.689 -4.003 L 2.211 55.712 C -0.961 51.181 -0.69 45.06 2.87 40.827 c 2.465 -2.931 6.061 -4.505 9.899 -4.345 c 3.826 0.169 7.28 2.065 9.477 5.203 l 9.836 14.047 l 42.227 -52.06 c 1.818 -2.241 4.623 -3.446 7.499 -3.246 c 2.877 0.209 5.476 1.814 6.95 4.293 l 0 0 v 0 c 0 0 0 0 0 0.001 c 1.773 2.979 1.634 6.739 -0.354 9.581 L 44.529 76.959 l -6.002 8.616 c -1.751 2.515 -4.626 4.019 -7.691 4.022 C 30.833 89.598 30.828 89.598 30.824 89.598 z M 12.221 42.47 c -1.843 0 -3.564 0.799 -4.759 2.219 c -1.813 2.156 -1.951 5.274 -0.335 7.582 L 28.05 82.153 c 0.643 0.918 1.653 1.444 2.774 1.444 c 0.001 0 0.003 0 0.004 0 c 1.123 -0.002 2.134 -0.531 2.775 -1.452 l 6.006 -8.622 L 83.488 10.86 c 0.637 -0.911 0.682 -2.117 0.113 -3.072 V 7.787 c -0.48 -0.807 -1.292 -1.309 -2.229 -1.376 c -0.939 -0.071 -1.813 0.312 -2.404 1.041 l -42.65 52.583 c -1.095 1.351 -2.713 2.083 -4.46 2.03 c -1.739 -0.062 -3.309 -0.914 -4.306 -2.34 L 17.331 45.125 c -1.119 -1.598 -2.878 -2.563 -4.827 -2.65 C 12.409 42.472 12.315 42.47 12.221 42.47 z" style="stroke: none; stroke-width: 1; stroke-dasharray: none; stroke-linecap: butt; stroke-linejoin: miter; stroke-miterlimit: 10; fill: rgb(0,0,0); fill-rule: nonzero; opacity: 1;" transform=" matrix(1 0 0 1 0 0) " stroke-linecap="round" />
</g>
</svg>